<mxfile host="app.diagrams.net" agent="Mozilla/5.0 (Windows NT 10.0; Win64; x64) AppleWebKit/537.36 (KHTML, like Gecko) Chrome/134.0.0.0 Safari/537.36" version="26.1.1">
  <diagram name="Página-1" id="Erx0SFSgzGdqmAM7d2dO">
    <mxGraphModel dx="2547" dy="871" grid="1" gridSize="10" guides="1" tooltips="1" connect="1" arrows="1" fold="1" page="1" pageScale="1" pageWidth="827" pageHeight="1169" math="0" shadow="0">
      <root>
        <mxCell id="0" />
        <mxCell id="1" parent="0" />
        <mxCell id="NXDC0SjZVIvA0isAVeFZ-1" value="Inventario" style="swimlane;whiteSpace=wrap;html=1;" parent="1" vertex="1">
          <mxGeometry x="160" y="1340" width="200" height="200" as="geometry" />
        </mxCell>
        <mxCell id="NXDC0SjZVIvA0isAVeFZ-7" value="+ Añadir_Producto&lt;div&gt;+ Quitar_Prodcuto&lt;/div&gt;&lt;div&gt;+ Mostrar_Productos&lt;/div&gt;&lt;div&gt;+ Eliminar_Producto&lt;/div&gt;" style="text;html=1;align=center;verticalAlign=middle;resizable=0;points=[];autosize=1;strokeColor=none;fillColor=none;" parent="NXDC0SjZVIvA0isAVeFZ-1" vertex="1">
          <mxGeometry x="30" y="110" width="140" height="70" as="geometry" />
        </mxCell>
        <mxCell id="Uyh6JOsQvy0ToGtH8zYP-4" value="-Capacidad : int&lt;div&gt;-Productos : Lista&lt;/div&gt;" style="text;html=1;align=center;verticalAlign=middle;resizable=0;points=[];autosize=1;strokeColor=none;fillColor=none;" parent="NXDC0SjZVIvA0isAVeFZ-1" vertex="1">
          <mxGeometry x="40" y="40" width="120" height="40" as="geometry" />
        </mxCell>
        <mxCell id="NXDC0SjZVIvA0isAVeFZ-2" value="" style="endArrow=none;html=1;rounded=0;exitX=0;exitY=0.5;exitDx=0;exitDy=0;" parent="1" source="NXDC0SjZVIvA0isAVeFZ-1" edge="1">
          <mxGeometry width="50" height="50" relative="1" as="geometry">
            <mxPoint x="500" y="1610" as="sourcePoint" />
            <mxPoint x="360" y="1440" as="targetPoint" />
          </mxGeometry>
        </mxCell>
        <mxCell id="NXDC0SjZVIvA0isAVeFZ-4" value="Producto" style="swimlane;whiteSpace=wrap;html=1;" parent="1" vertex="1">
          <mxGeometry x="490" y="1340" width="200" height="200" as="geometry" />
        </mxCell>
        <mxCell id="NXDC0SjZVIvA0isAVeFZ-6" value="- Codigo : int&lt;div&gt;- Nombre : string&lt;/div&gt;&lt;div&gt;- Categoria : string&lt;/div&gt;&lt;div&gt;-Stock : int&lt;/div&gt;" style="text;html=1;align=center;verticalAlign=middle;resizable=0;points=[];autosize=1;strokeColor=none;fillColor=none;" parent="NXDC0SjZVIvA0isAVeFZ-4" vertex="1">
          <mxGeometry x="31" y="25" width="120" height="70" as="geometry" />
        </mxCell>
        <mxCell id="Uyh6JOsQvy0ToGtH8zYP-3" value="+ Asociar_Categoria&lt;div&gt;+ Aumentar_stock&lt;/div&gt;&lt;div&gt;+Disminuir_Stock&lt;/div&gt;" style="text;html=1;align=center;verticalAlign=middle;resizable=0;points=[];autosize=1;strokeColor=none;fillColor=none;" parent="NXDC0SjZVIvA0isAVeFZ-4" vertex="1">
          <mxGeometry x="26" y="110" width="130" height="60" as="geometry" />
        </mxCell>
        <mxCell id="NXDC0SjZVIvA0isAVeFZ-5" value="" style="endArrow=none;html=1;rounded=0;entryX=1;entryY=0.5;entryDx=0;entryDy=0;exitX=0;exitY=0.5;exitDx=0;exitDy=0;" parent="1" source="NXDC0SjZVIvA0isAVeFZ-4" target="NXDC0SjZVIvA0isAVeFZ-4" edge="1">
          <mxGeometry width="50" height="50" relative="1" as="geometry">
            <mxPoint x="420" y="1590" as="sourcePoint" />
            <mxPoint x="550" y="1560" as="targetPoint" />
          </mxGeometry>
        </mxCell>
        <mxCell id="Uyh6JOsQvy0ToGtH8zYP-1" value="" style="rhombus;whiteSpace=wrap;html=1;strokeWidth=2;fillWeight=-1;hachureGap=8;fillStyle=cross-hatch;fillColor=#006600;sketch=1;" parent="1" vertex="1">
          <mxGeometry x="360" y="1420" width="40" height="40" as="geometry" />
        </mxCell>
        <mxCell id="Uyh6JOsQvy0ToGtH8zYP-2" value="" style="endArrow=none;html=1;rounded=0;exitX=1;exitY=0.5;exitDx=0;exitDy=0;entryX=0;entryY=0.5;entryDx=0;entryDy=0;" parent="1" source="Uyh6JOsQvy0ToGtH8zYP-1" target="NXDC0SjZVIvA0isAVeFZ-4" edge="1">
          <mxGeometry width="50" height="50" relative="1" as="geometry">
            <mxPoint x="500" y="1630" as="sourcePoint" />
            <mxPoint x="550" y="1580" as="targetPoint" />
          </mxGeometry>
        </mxCell>
        <mxCell id="Uyh6JOsQvy0ToGtH8zYP-17" style="edgeStyle=orthogonalEdgeStyle;rounded=0;orthogonalLoop=1;jettySize=auto;html=1;entryX=0;entryY=0.5;entryDx=0;entryDy=0;" parent="1" source="Uyh6JOsQvy0ToGtH8zYP-5" target="Uyh6JOsQvy0ToGtH8zYP-7" edge="1">
          <mxGeometry relative="1" as="geometry" />
        </mxCell>
        <mxCell id="Uyh6JOsQvy0ToGtH8zYP-5" value="CLIENTE" style="swimlane;whiteSpace=wrap;html=1;" parent="1" vertex="1">
          <mxGeometry x="160" y="800" width="200" height="200" as="geometry" />
        </mxCell>
        <mxCell id="Uyh6JOsQvy0ToGtH8zYP-13" value="&lt;div&gt;Nombre_cliente : string&lt;/div&gt;&lt;div&gt;ClienteID : int&lt;/div&gt;Email : string" style="text;html=1;align=center;verticalAlign=middle;resizable=0;points=[];autosize=1;strokeColor=none;fillColor=none;" parent="Uyh6JOsQvy0ToGtH8zYP-5" vertex="1">
          <mxGeometry x="25" y="25" width="150" height="60" as="geometry" />
        </mxCell>
        <mxCell id="Uyh6JOsQvy0ToGtH8zYP-27" value="+registrarse&lt;div&gt;+Hacer_pedido&lt;/div&gt;" style="text;html=1;align=center;verticalAlign=middle;resizable=0;points=[];autosize=1;strokeColor=none;fillColor=none;" parent="Uyh6JOsQvy0ToGtH8zYP-5" vertex="1">
          <mxGeometry x="45" y="130" width="110" height="40" as="geometry" />
        </mxCell>
        <mxCell id="Uyh6JOsQvy0ToGtH8zYP-6" value="" style="endArrow=none;html=1;rounded=0;entryX=1;entryY=0.5;entryDx=0;entryDy=0;exitX=0;exitY=0.5;exitDx=0;exitDy=0;" parent="1" source="Uyh6JOsQvy0ToGtH8zYP-5" target="Uyh6JOsQvy0ToGtH8zYP-5" edge="1">
          <mxGeometry width="50" height="50" relative="1" as="geometry">
            <mxPoint x="240" y="1080" as="sourcePoint" />
            <mxPoint x="440" y="910" as="targetPoint" />
          </mxGeometry>
        </mxCell>
        <mxCell id="Uyh6JOsQvy0ToGtH8zYP-7" value="USUARIO" style="swimlane;whiteSpace=wrap;html=1;" parent="1" vertex="1">
          <mxGeometry x="470" y="700" width="200" height="200" as="geometry" />
        </mxCell>
        <mxCell id="Uyh6JOsQvy0ToGtH8zYP-11" value="-UsuarioID : ID&lt;div&gt;-Username : string&lt;br&gt;&lt;div&gt;-Contraseña : string&lt;/div&gt;&lt;div&gt;&lt;br&gt;&lt;/div&gt;&lt;/div&gt;" style="text;html=1;align=center;verticalAlign=middle;resizable=0;points=[];autosize=1;strokeColor=none;fillColor=none;" parent="Uyh6JOsQvy0ToGtH8zYP-7" vertex="1">
          <mxGeometry x="35" y="30" width="130" height="70" as="geometry" />
        </mxCell>
        <mxCell id="Uyh6JOsQvy0ToGtH8zYP-12" value="+Loguearse : bool" style="text;html=1;align=center;verticalAlign=middle;resizable=0;points=[];autosize=1;strokeColor=none;fillColor=none;" parent="Uyh6JOsQvy0ToGtH8zYP-7" vertex="1">
          <mxGeometry x="40" y="120" width="120" height="30" as="geometry" />
        </mxCell>
        <mxCell id="Uyh6JOsQvy0ToGtH8zYP-8" value="" style="endArrow=none;html=1;rounded=0;entryX=1;entryY=0.5;entryDx=0;entryDy=0;exitX=0;exitY=0.5;exitDx=0;exitDy=0;" parent="1" source="Uyh6JOsQvy0ToGtH8zYP-7" target="Uyh6JOsQvy0ToGtH8zYP-7" edge="1">
          <mxGeometry width="50" height="50" relative="1" as="geometry">
            <mxPoint x="390" y="960" as="sourcePoint" />
            <mxPoint x="440" y="910" as="targetPoint" />
          </mxGeometry>
        </mxCell>
        <mxCell id="Uyh6JOsQvy0ToGtH8zYP-9" value="PEDIDO" style="swimlane;whiteSpace=wrap;html=1;" parent="1" vertex="1">
          <mxGeometry x="160" y="1070" width="200" height="200" as="geometry" />
        </mxCell>
        <mxCell id="Uyh6JOsQvy0ToGtH8zYP-14" value="-OrdenID : int&lt;div&gt;-Fecha_pedido : String&lt;/div&gt;&lt;div&gt;-Historial_pedidos : Lista&lt;/div&gt;&lt;div&gt;-Status : string&lt;/div&gt;" style="text;html=1;align=center;verticalAlign=middle;resizable=0;points=[];autosize=1;strokeColor=none;fillColor=none;" parent="Uyh6JOsQvy0ToGtH8zYP-9" vertex="1">
          <mxGeometry x="25" y="25" width="150" height="70" as="geometry" />
        </mxCell>
        <mxCell id="Uyh6JOsQvy0ToGtH8zYP-26" value="+cambiar_status" style="text;html=1;align=center;verticalAlign=middle;resizable=0;points=[];autosize=1;strokeColor=none;fillColor=none;" parent="Uyh6JOsQvy0ToGtH8zYP-9" vertex="1">
          <mxGeometry x="25" y="110" width="110" height="30" as="geometry" />
        </mxCell>
        <mxCell id="Uyh6JOsQvy0ToGtH8zYP-10" value="" style="endArrow=none;html=1;rounded=0;exitX=0;exitY=0.5;exitDx=0;exitDy=0;entryX=1;entryY=0.5;entryDx=0;entryDy=0;" parent="1" source="Uyh6JOsQvy0ToGtH8zYP-9" target="Uyh6JOsQvy0ToGtH8zYP-9" edge="1">
          <mxGeometry width="50" height="50" relative="1" as="geometry">
            <mxPoint x="390" y="960" as="sourcePoint" />
            <mxPoint x="440" y="910" as="targetPoint" />
          </mxGeometry>
        </mxCell>
        <mxCell id="Uyh6JOsQvy0ToGtH8zYP-15" value="FACTURA" style="swimlane;whiteSpace=wrap;html=1;startSize=23;" parent="1" vertex="1">
          <mxGeometry x="530" y="1070" width="200" height="200" as="geometry" />
        </mxCell>
        <mxCell id="6Q0iPo8cjSmV87vSDuel-1" value="-Nro_Factura : int&lt;div&gt;-Cantidad : int&lt;/div&gt;&lt;div&gt;-ProductoID : int&lt;/div&gt;&lt;div&gt;Precio_unitario : int&lt;/div&gt;" style="text;html=1;align=center;verticalAlign=middle;resizable=0;points=[];autosize=1;strokeColor=none;fillColor=none;" vertex="1" parent="Uyh6JOsQvy0ToGtH8zYP-15">
          <mxGeometry x="35" y="29" width="130" height="70" as="geometry" />
        </mxCell>
        <mxCell id="Uyh6JOsQvy0ToGtH8zYP-16" value="" style="endArrow=none;html=1;rounded=0;entryX=1;entryY=0.5;entryDx=0;entryDy=0;exitX=0;exitY=0.5;exitDx=0;exitDy=0;" parent="1" source="Uyh6JOsQvy0ToGtH8zYP-15" target="Uyh6JOsQvy0ToGtH8zYP-15" edge="1">
          <mxGeometry width="50" height="50" relative="1" as="geometry">
            <mxPoint x="310" y="910" as="sourcePoint" />
            <mxPoint x="360" y="860" as="targetPoint" />
          </mxGeometry>
        </mxCell>
        <mxCell id="Uyh6JOsQvy0ToGtH8zYP-20" style="edgeStyle=orthogonalEdgeStyle;rounded=0;orthogonalLoop=1;jettySize=auto;html=1;exitX=0;exitY=0.5;exitDx=0;exitDy=0;entryX=1;entryY=0.5;entryDx=0;entryDy=0;" parent="1" source="Uyh6JOsQvy0ToGtH8zYP-18" target="Uyh6JOsQvy0ToGtH8zYP-7" edge="1">
          <mxGeometry relative="1" as="geometry" />
        </mxCell>
        <mxCell id="Uyh6JOsQvy0ToGtH8zYP-18" value="ADMINISTRADOR" style="swimlane;whiteSpace=wrap;html=1;" parent="1" vertex="1">
          <mxGeometry x="750" y="800" width="200" height="200" as="geometry" />
        </mxCell>
        <mxCell id="Uyh6JOsQvy0ToGtH8zYP-21" value="-Nombre_Administrador : string&lt;div&gt;-email : string&lt;/div&gt;" style="text;html=1;align=center;verticalAlign=middle;resizable=0;points=[];autosize=1;strokeColor=none;fillColor=none;" parent="Uyh6JOsQvy0ToGtH8zYP-18" vertex="1">
          <mxGeometry x="5" y="35" width="190" height="40" as="geometry" />
        </mxCell>
        <mxCell id="Uyh6JOsQvy0ToGtH8zYP-32" value="-Obtener_reporte" style="text;html=1;align=center;verticalAlign=middle;resizable=0;points=[];autosize=1;strokeColor=none;fillColor=none;" parent="Uyh6JOsQvy0ToGtH8zYP-18" vertex="1">
          <mxGeometry x="40" y="110" width="120" height="30" as="geometry" />
        </mxCell>
        <mxCell id="Uyh6JOsQvy0ToGtH8zYP-19" value="" style="endArrow=none;html=1;rounded=0;entryX=1;entryY=0.5;entryDx=0;entryDy=0;exitX=0;exitY=0.5;exitDx=0;exitDy=0;" parent="1" source="Uyh6JOsQvy0ToGtH8zYP-18" target="Uyh6JOsQvy0ToGtH8zYP-18" edge="1">
          <mxGeometry width="50" height="50" relative="1" as="geometry">
            <mxPoint x="310" y="910" as="sourcePoint" />
            <mxPoint x="360" y="860" as="targetPoint" />
          </mxGeometry>
        </mxCell>
        <mxCell id="Uyh6JOsQvy0ToGtH8zYP-22" value="" style="rhombus;whiteSpace=wrap;html=1;strokeWidth=2;fillWeight=-1;hachureGap=8;fillStyle=cross-hatch;fillColor=#006600;sketch=1;" parent="1" vertex="1">
          <mxGeometry x="235" y="1000" width="50" height="40" as="geometry" />
        </mxCell>
        <mxCell id="Uyh6JOsQvy0ToGtH8zYP-23" value="" style="endArrow=none;html=1;rounded=0;exitX=0.5;exitY=1;exitDx=0;exitDy=0;entryX=0.5;entryY=0;entryDx=0;entryDy=0;" parent="1" source="Uyh6JOsQvy0ToGtH8zYP-22" target="Uyh6JOsQvy0ToGtH8zYP-9" edge="1">
          <mxGeometry width="50" height="50" relative="1" as="geometry">
            <mxPoint x="310" y="1010" as="sourcePoint" />
            <mxPoint x="360" y="960" as="targetPoint" />
          </mxGeometry>
        </mxCell>
        <mxCell id="Uyh6JOsQvy0ToGtH8zYP-24" value="" style="rhombus;whiteSpace=wrap;html=1;strokeWidth=2;fillWeight=-1;hachureGap=8;fillStyle=cross-hatch;fillColor=#006600;sketch=1;" parent="1" vertex="1">
          <mxGeometry x="360" y="1150" width="60" height="40" as="geometry" />
        </mxCell>
        <mxCell id="Uyh6JOsQvy0ToGtH8zYP-25" value="" style="endArrow=none;html=1;rounded=0;entryX=0;entryY=0.5;entryDx=0;entryDy=0;exitX=1;exitY=0.5;exitDx=0;exitDy=0;" parent="1" source="Uyh6JOsQvy0ToGtH8zYP-24" target="Uyh6JOsQvy0ToGtH8zYP-15" edge="1">
          <mxGeometry width="50" height="50" relative="1" as="geometry">
            <mxPoint x="310" y="1010" as="sourcePoint" />
            <mxPoint x="360" y="960" as="targetPoint" />
          </mxGeometry>
        </mxCell>
        <mxCell id="Uyh6JOsQvy0ToGtH8zYP-28" value="CARRITO" style="swimlane;whiteSpace=wrap;html=1;" parent="1" vertex="1">
          <mxGeometry x="-140" y="940" width="200" height="200" as="geometry" />
        </mxCell>
        <mxCell id="Uyh6JOsQvy0ToGtH8zYP-30" value="+Añadir_al_carro" style="text;html=1;align=center;verticalAlign=middle;resizable=0;points=[];autosize=1;strokeColor=none;fillColor=none;" parent="Uyh6JOsQvy0ToGtH8zYP-28" vertex="1">
          <mxGeometry x="30" y="110" width="120" height="30" as="geometry" />
        </mxCell>
        <mxCell id="Uyh6JOsQvy0ToGtH8zYP-31" value="+Quitar_del_carro" style="text;html=1;align=center;verticalAlign=middle;resizable=0;points=[];autosize=1;strokeColor=none;fillColor=none;" parent="Uyh6JOsQvy0ToGtH8zYP-28" vertex="1">
          <mxGeometry x="30" y="140" width="120" height="30" as="geometry" />
        </mxCell>
        <mxCell id="Uyh6JOsQvy0ToGtH8zYP-29" value="" style="endArrow=none;html=1;rounded=0;exitX=0;exitY=0.5;exitDx=0;exitDy=0;entryX=1;entryY=0.5;entryDx=0;entryDy=0;" parent="1" source="Uyh6JOsQvy0ToGtH8zYP-28" target="Uyh6JOsQvy0ToGtH8zYP-28" edge="1">
          <mxGeometry width="50" height="50" relative="1" as="geometry">
            <mxPoint x="240" y="1010" as="sourcePoint" />
            <mxPoint x="290" y="960" as="targetPoint" />
          </mxGeometry>
        </mxCell>
        <mxCell id="6Q0iPo8cjSmV87vSDuel-2" value="" style="endArrow=none;html=1;rounded=0;exitX=0.5;exitY=0;exitDx=0;exitDy=0;entryX=0.5;entryY=1;entryDx=0;entryDy=0;" edge="1" parent="1" source="NXDC0SjZVIvA0isAVeFZ-1" target="Uyh6JOsQvy0ToGtH8zYP-9">
          <mxGeometry width="50" height="50" relative="1" as="geometry">
            <mxPoint x="370" y="1240" as="sourcePoint" />
            <mxPoint x="420" y="1190" as="targetPoint" />
          </mxGeometry>
        </mxCell>
        <mxCell id="6Q0iPo8cjSmV87vSDuel-3" value="" style="rhombus;whiteSpace=wrap;html=1;strokeWidth=2;fillWeight=-1;hachureGap=8;fillStyle=cross-hatch;fillColor=#006600;sketch=1;" vertex="1" parent="1">
          <mxGeometry x="110" y="880" width="50" height="40" as="geometry" />
        </mxCell>
        <mxCell id="6Q0iPo8cjSmV87vSDuel-4" value="" style="endArrow=none;html=1;rounded=0;exitX=0.5;exitY=0;exitDx=0;exitDy=0;entryX=0;entryY=0.5;entryDx=0;entryDy=0;" edge="1" parent="1" source="Uyh6JOsQvy0ToGtH8zYP-28" target="6Q0iPo8cjSmV87vSDuel-3">
          <mxGeometry width="50" height="50" relative="1" as="geometry">
            <mxPoint x="370" y="960" as="sourcePoint" />
            <mxPoint x="420" y="910" as="targetPoint" />
            <Array as="points">
              <mxPoint x="-40" y="900" />
            </Array>
          </mxGeometry>
        </mxCell>
        <mxCell id="6Q0iPo8cjSmV87vSDuel-5" value="TIENDA" style="swimlane;whiteSpace=wrap;html=1;" vertex="1" parent="1">
          <mxGeometry x="470" y="370" width="200" height="200" as="geometry" />
        </mxCell>
        <mxCell id="6Q0iPo8cjSmV87vSDuel-8" value="lista_usuarios : lista" style="text;html=1;align=center;verticalAlign=middle;resizable=0;points=[];autosize=1;strokeColor=none;fillColor=none;" vertex="1" parent="6Q0iPo8cjSmV87vSDuel-5">
          <mxGeometry x="35" y="40" width="130" height="30" as="geometry" />
        </mxCell>
        <mxCell id="6Q0iPo8cjSmV87vSDuel-9" value="+ Agregar_usuario" style="text;html=1;align=center;verticalAlign=middle;resizable=0;points=[];autosize=1;strokeColor=none;fillColor=none;" vertex="1" parent="6Q0iPo8cjSmV87vSDuel-5">
          <mxGeometry x="40" y="120" width="120" height="30" as="geometry" />
        </mxCell>
        <mxCell id="6Q0iPo8cjSmV87vSDuel-7" value="" style="endArrow=none;html=1;rounded=0;entryX=1;entryY=0.5;entryDx=0;entryDy=0;exitX=0;exitY=0.5;exitDx=0;exitDy=0;" edge="1" parent="1" source="6Q0iPo8cjSmV87vSDuel-5" target="6Q0iPo8cjSmV87vSDuel-5">
          <mxGeometry width="50" height="50" relative="1" as="geometry">
            <mxPoint x="240" y="620" as="sourcePoint" />
            <mxPoint x="290" y="570" as="targetPoint" />
          </mxGeometry>
        </mxCell>
      </root>
    </mxGraphModel>
  </diagram>
</mxfile>
